<svg xmlns="http://www.w3.org/2000/svg" viewBox="0 0 512 512">
  <defs>
    <linearGradient id="logoGradient" x1="0%" y1="0%" x2="100%" y2="100%">
      <stop offset="0%" stop-color="#00897B" />
      <stop offset="100%" stop-color="#00695C" />
    </linearGradient>
    <linearGradient id="accentGradient" x1="0%" y1="0%" x2="100%" y2="100%">
      <stop offset="0%" stop-color="#FFA000" />
      <stop offset="100%" stop-color="#FF8F00" />
    </linearGradient>
  </defs>
  
  <!-- Background circle with gradient -->
  <circle cx="256" cy="256" r="240" fill="url(#logoGradient)" />
  
  <!-- Outer ring -->
  <circle 
    cx="256" cy="256" r="220" 
    fill="none" 
    stroke="white" 
    stroke-width="8" 
    opacity="0.2"
  />
  
  <!-- Car icon -->
  <g transform="translate(120, 120)">
    <!-- Car body -->
    <path
      d="M20 100 H60 L70 70 H110 L125 100 H150 V140 H20 V100 Z"
      fill="white"
      opacity="0.95"
    />
    
    <!-- Car roof -->
    <path
      d="M75 70 L90 50 H100 L115 70"
      fill="white"
      opacity="0.9"
    />
    
    <!-- Front wheel -->
    <circle cx="50" cy="140" r="22" fill="white" opacity="0.95" />
    <circle cx="50" cy="140" r="12" fill="url(#logoGradient)" />
    
    <!-- Rear wheel -->
    <circle cx="120" cy="140" r="22" fill="white" opacity="0.95" />
    <circle cx="120" cy="140" r="12" fill="url(#logoGradient)" />
    
    <!-- Headlights -->
    <rect x="145" y="110" width="8" height="15" rx="2" fill="url(#accentGradient)" />
  </g>
  
  <!-- Dollar sign in center -->
  <g transform="translate(256, 256)">
    <!-- Dollar symbol -->
    <text
      x="0"
      y="0"
      text-anchor="middle"
      dominant-baseline="central"
      font-size="180"
      font-weight="bold"
      fill="white"
      font-family="Inter, Arial, sans-serif"
    >
      $
    </text>
  </g>
  
  <!-- Progress indicator arc -->
  <path
    d="M 256 80 A 176 176 0 0 1 432 256"
    fill="none"
    stroke="url(#accentGradient)"
    stroke-width="12"
    stroke-linecap="round"
  />
</svg>
